<svg xmlns="http://www.w3.org/2000/svg" viewBox="0 0 70 68" fill="white">
  <path d="M 29 6 L 29 13 L 27 15 L 26 15 L 25 16 L 24 16 L 22 18 L 21 18 L 20 17 L 19 17 L 18 16 L 17 16 L 16 15 L 14 15 L 13 16 L 13 17 L 12 18 L 12 19 L 10 21 L 10 22 L 9 23 L 9 24 L 8 25 L 9 26 L 10 26 L 11 27 L 12 27 L 13 28 L 14 28 L 15 29 L 15 38 L 14 39 L 13 39 L 12 40 L 11 40 L 9 42 L 8 42 L 9 43 L 9 44 L 10 45 L 10 46 L 12 48 L 12 49 L 13 50 L 13 51 L 15 53 L 17 51 L 18 51 L 19 50 L 20 50 L 21 49 L 22 49 L 24 51 L 25 51 L 26 52 L 27 52 L 29 54 L 29 61 L 41 61 L 41 55 L 44 52 L 45 52 L 46 51 L 47 51 L 49 49 L 50 49 L 51 50 L 52 50 L 53 51 L 54 51 L 56 53 L 57 52 L 57 51 L 58 50 L 58 49 L 60 47 L 60 46 L 61 45 L 61 44 L 62 43 L 62 42 L 61 41 L 60 41 L 58 39 L 57 39 L 56 38 L 56 31 L 55 30 L 57 28 L 58 28 L 60 26 L 61 26 L 62 25 L 62 24 L 61 23 L 61 22 L 59 20 L 59 19 L 58 18 L 58 17 L 57 16 L 57 15 L 55 15 L 54 16 L 53 16 L 52 17 L 51 17 L 50 18 L 49 18 L 48 17 L 47 17 L 45 15 L 44 15 L 43 14 L 42 14 L 41 13 L 41 12 L 42 11 L 42 6 Z" />
  <circle cx="35" cy="34" r="10" fill="none" stroke="white" stroke-width="3"/>
</svg>