<svg
  viewBox="0 0 400 400"
  fill="none"
  xmlns="http://www.w3.org/2000/svg"
  className="w-full h-auto"
>
  {/* Engranajes */}
  <circle cx="340" cy="90" r="32" fill="#e3f2fd" />
  <circle cx="60" cy="320" r="24" fill="#e3f2fd" />
  {/* Pantalla principal */}
  <rect x="70" y="100" width="260" height="140" rx="12" fill="#1976d2" />
  {/* Código en pantalla */}
  <rect x="90" y="120" width="100" height="10" rx="3" fill="#fff" />
  <rect x="90" y="140" width="140" height="10" rx="3" fill="#fff" opacity="0.7" />
  <rect x="90" y="160" width="80" height="10" rx="3" fill="#fff" opacity="0.5" />
  <rect x="90" y="180" width="120" height="10" rx="3" fill="#fff" opacity="0.8" />
  {/* Ventana de código */}
  <rect x="110" y="250" width="60" height="40" rx="8" fill="#26c6da" />
  <text x="140" y="275" textAnchor="middle" fontSize="22" fill="#fff" fontFamily="monospace">&lt;/&gt;</text>
  {/* Nube */}
  <rect x="270" y="60" width="60" height="40" rx="12" fill="#90caf9" />
  <path d="M295 80a10 10 0 1 1 20 0h5a10 10 0 1 1 0 20h-30a10 10 0 1 1 0-20h5z" fill="#fff" />
  <polygon points="300,90 310,110 320,90" fill="#1976d2" opacity="0.7" />
  {/* Celular */}
  <rect x="260" y="220" width="60" height="100" rx="14" fill="#3949ab" />
  <circle cx="290" cy="290" r="18" fill="#fff" opacity="0.8" />
  <polyline points="282,290 288,296 298,284" fill="none" stroke="#26c6da" strokeWidth="3" />
</svg>