<svg
  viewBox="0 0 400 210"
  fill="none"
  xmlns="http://www.w3.org/2000/svg"
>
  <!-- Monitor base (más grande) -->
  <rect x="60" y="0" width="280" height="170" rx="10" fill="#1976d2" stroke="#0d47a1" stroke-width="2"/>
  <!-- Pantalla -->
  <rect x="76" y="16" width="248" height="142" rx="8" fill="#1e293b" />
  <!-- Soporte -->
  <rect x="180" y="165" width="40" height="14" rx="5" fill="#90caf9"/>
  <rect x="170" y="179" width="60" height="10" rx="5" fill="#1976d2"/>
  <!-- Sombra bajo el monitor -->
  <ellipse cx="200" cy="193" rx="70" ry="12" fill="#90caf9" opacity="0.3"/>
  <!-- Barra superior tipo VS Code -->
  <rect x="110" y="32" width="180" height="12" rx="4" fill="#23293a"/>
  <!-- Botones ventana -->
  <circle cx="290" cy="38" r="3" fill="#f87171"/>
  <circle cx="300" cy="38" r="3" fill="#fbbf24"/>
  <circle cx="310" cy="38" r="3" fill="#34d399"/>
  <!-- Panel lateral izquierdo tipo VS Code (sin iconos) -->
  <rect x="90" y="48" width="32" height="100" rx="5" fill="#23293a" opacity="0.98"/>
  <!-- Panel de archivos -->
  <rect x="90" y="48" width="38" height="100" rx="4" fill="#26324a" opacity="0.98"/>
  <!-- Archivos -->
  <rect x="95" y="58" width="24" height="4" rx="2" fill="#43e6c2" opacity="0.8"/>
  <rect x="95" y="68" width="20" height="4" rx="2" fill="#fff" opacity="0.7"/>
  <rect x="95" y="78" width="18" height="4" rx="2" fill="#fbc02d" opacity="0.8"/>
  <!-- Panel de código a la derecha -->
  <rect x="170" y="48" width="150" height="100" rx="6" fill="#23293a" opacity="0.98"/>
  <!-- Líneas de código (menos y más delgadas) -->
  <rect x="140" y="58" width="90" height="3" rx="1.5" fill="#43e6c2" opacity="0.9"/>
  <rect x="140" y="66" width="60" height="3" rx="1.5" fill="#fbc02d" opacity="0.9"/>
  <rect x="140" y="74" width="100" height="3" rx="1.5" fill="#fff" opacity="0.7"/>
  <rect x="140" y="82" width="50" height="3" rx="1.5" fill="#43e6c2" opacity="0.9"/>
</svg>